<?xml version="1.0" standalone="no"?>
<!DOCTYPE svg PUBLIC "-//W3C//DTD SVG 20010904//EN"
 "http://www.w3.org/TR/2001/REC-SVG-20010904/DTD/svg10.dtd">
<svg version="1.0" xmlns="http://www.w3.org/2000/svg"
 width="480.000000pt" height="324.000000pt" viewBox="0 0 480.000000 324.000000"
 preserveAspectRatio="xMidYMid meet">

<g transform="translate(0.000000,324.000000) scale(0.100000,-0.100000)"
fill="#000000" stroke="none">
<path d="M774 3218 c-4 -7 -11 -60 -15 -118 -10 -156 -64 -414 -115 -552 -69
-186 -88 -304 -89 -548 0 -156 5 -246 22 -375 12 -93 19 -173 15 -176 -4 -4
-34 -14 -67 -24 -76 -21 -216 -93 -374 -193 -135 -84 -153 -102 -135 -130 22
-33 67 -18 201 69 70 45 160 101 199 124 85 49 180 83 193 70 5 -6 23 -59 40
-120 29 -101 30 -111 15 -120 -103 -61 -231 -192 -334 -342 -54 -77 -57 -83
-37 -83 19 0 77 57 185 181 94 109 149 161 197 187 19 10 26 -2 101 -156 l81
-167 -29 -42 c-16 -23 -42 -71 -58 -105 -26 -55 -30 -74 -30 -148 0 -47 4 -91
8 -98 6 -8 22 23 47 90 43 118 91 218 104 218 5 0 18 -15 28 -33 37 -63 146
-179 227 -243 128 -102 348 -206 591 -281 135 -41 242 -61 405 -74 69 -5 158
-12 199 -16 69 -5 120 -2 411 28 180 19 385 80 624 185 187 83 356 216 461
363 28 38 53 70 57 70 14 2 57 -86 99 -201 23 -65 46 -115 51 -112 4 3 8 45 8
94 0 103 -20 168 -75 246 -35 48 -43 78 -26 88 4 3 39 73 77 156 37 82 70 150
73 150 21 0 136 -108 226 -212 113 -129 158 -172 176 -166 15 5 -77 139 -165
240 -79 90 -140 145 -193 172 l-31 16 31 121 32 121 34 -6 c54 -8 151 -58 303
-157 180 -115 223 -137 246 -123 9 6 18 22 20 36 3 23 -12 35 -155 121 -195
117 -268 154 -358 182 -81 25 -75 7 -55 189 8 81 11 196 7 360 -6 282 -29 455
-83 633 -68 224 -101 457 -77 543 6 20 6 45 2 58 -7 19 -16 22 -63 22 -49 0
-62 -5 -142 -58 -103 -68 -358 -264 -424 -326 l-45 -43 -240 -16 c-197 -13
-255 -21 -325 -42 -144 -43 -271 -75 -301 -75 -27 0 -29 3 -29 38 0 98 33 216
66 235 22 13 16 27 -10 27 -29 0 -69 -45 -86 -94 -6 -19 -15 -72 -20 -118 -7
-70 -8 -58 -5 77 2 89 8 173 15 190 6 17 22 69 35 118 26 95 17 122 -10 30
-46 -159 -55 -208 -55 -317 0 -154 -9 -216 -29 -216 -34 0 -42 17 -51 107 -14
151 -48 223 -105 223 -31 0 -31 -9 -1 -37 28 -27 46 -90 53 -192 l6 -74 -57 7
c-31 3 -75 13 -99 22 -132 49 -273 75 -507 91 l-235 17 -61 55 c-71 66 -393
310 -456 346 -46 26 -102 33 -114 13z m3170 -234 c8 -38 19 -115 26 -172 6
-57 35 -199 65 -316 30 -116 59 -252 65 -301 7 -50 19 -110 27 -135 12 -35 16
-95 16 -270 1 -124 -2 -250 -6 -281 l-8 -55 -107 -12 c-123 -14 -388 -85 -335
-90 17 -2 83 6 145 17 62 12 150 21 195 21 97 0 95 5 62 -123 -31 -120 -22
-113 -149 -122 -62 -4 -109 -10 -105 -13 4 -4 48 -11 98 -17 91 -10 92 -10 90
-37 -2 -29 -119 -278 -130 -278 -5 0 -35 11 -68 25 -62 25 -105 32 -105 16 0
-5 29 -32 65 -60 36 -28 65 -55 65 -60 0 -5 -19 -37 -42 -71 -60 -91 -169
-196 -273 -266 -158 -105 -484 -219 -730 -256 -122 -18 -686 -18 -810 0 -232
34 -575 152 -718 248 -121 80 -293 260 -323 337 -4 11 16 32 60 67 36 29 66
56 66 61 0 16 -40 10 -106 -17 -63 -25 -66 -25 -79 -7 -20 25 -125 259 -125
276 0 11 23 16 95 22 52 4 97 11 100 15 3 5 -44 12 -105 15 -61 4 -113 12
-116 17 -10 16 -54 183 -54 206 0 21 4 22 83 22 45 0 133 -9 195 -21 62 -11
127 -19 145 -17 51 5 -212 77 -332 91 -103 12 -105 13 -114 42 -4 17 -9 143
-10 280 -2 248 -2 251 31 405 19 85 55 241 82 345 26 105 56 249 65 320 19
150 33 215 48 215 9 0 187 -128 187 -136 0 -2 -9 -27 -20 -56 -43 -116 -71
-299 -51 -337 7 -11 16 -21 21 -21 5 0 45 24 87 54 43 29 107 71 143 93 l65
40 125 -3 c390 -9 481 -13 497 -23 16 -9 18 -24 14 -165 l-3 -156 35 -35 c46
-46 71 -45 118 6 64 70 80 149 53 263 -7 28 -6 29 27 23 19 -3 89 -9 157 -13
79 -4 122 -10 122 -18 0 -6 -7 -33 -15 -60 -26 -85 -20 -136 20 -190 33 -42
40 -46 79 -46 31 0 48 6 64 23 50 53 57 150 17 236 -14 30 -24 56 -22 58 8 8
291 82 296 78 2 -3 3 -32 2 -65 -3 -70 11 -121 46 -168 33 -44 80 -43 103 3
16 33 20 160 7 212 l-8 32 78 -1 c43 0 145 2 228 5 146 5 151 5 192 -20 23
-13 52 -40 64 -59 11 -19 29 -39 39 -44 22 -12 50 -3 50 15 0 7 15 44 34 82
42 84 69 190 64 257 l-3 50 64 49 c35 26 65 46 67 44 2 -2 10 -34 18 -73z
m-219 -130 c-8 -55 -41 -183 -49 -191 -3 -3 -18 5 -33 18 -16 13 -48 33 -71
43 -23 10 -42 22 -42 26 0 8 113 102 160 133 37 26 43 21 35 -29z m-2512 -49
c37 -31 67 -60 67 -65 0 -5 -35 -33 -77 -61 -43 -28 -93 -66 -112 -83 l-34
-31 6 65 c10 108 47 230 70 230 7 0 43 -25 80 -55z"/>
<path d="M1867 1859 c-58 -14 -97 -37 -107 -65 -29 -75 8 -175 74 -205 73 -33
116 -19 152 53 39 77 27 174 -27 212 -26 18 -36 18 -92 5z m91 -107 c3 -33 -9
-41 -37 -23 -9 6 -11 18 -7 36 10 38 40 30 44 -13z"/>
<path d="M2905 1856 c-63 -27 -86 -95 -61 -179 18 -61 61 -107 101 -107 76 0
144 175 100 259 -8 16 -22 31 -30 35 -27 10 -78 6 -110 -8z m95 -101 c0 -18
-5 -25 -20 -25 -20 0 -28 28 -13 43 15 16 33 6 33 -18z"/>
<path d="M2440 1575 c-19 -8 -59 -14 -87 -14 -64 -1 -93 -24 -93 -73 1 -39 58
-123 97 -141 l26 -12 -6 -149 c-4 -98 -10 -152 -18 -157 -7 -4 -35 -10 -64
-14 -73 -9 -136 9 -176 51 -32 33 -33 38 -34 114 -2 90 -14 115 -43 87 -13
-14 -17 -33 -15 -91 2 -88 20 -135 64 -168 61 -44 91 -51 192 -44 113 9 121 9
233 1 102 -8 146 1 195 42 43 37 58 73 65 155 6 63 4 76 -13 97 -27 33 -43 19
-44 -37 -1 -93 -14 -142 -45 -167 -39 -32 -104 -47 -164 -39 -79 10 -78 10
-86 179 l-6 150 34 15 c43 19 58 53 61 135 2 57 -1 69 -18 80 -16 10 -26 10
-55 0z m61 -36 c15 -29 -6 -52 -25 -26 -7 9 -21 17 -30 17 -9 0 -16 7 -16 15
0 24 57 19 71 -6z"/>
</g>
</svg>
